INVICTUS:

Invictus - è un film di Clint Eastwood del 2009.

Il film è un adattamento cinematografico del romanzo Ama il tuo nemico di John Carlin, a sua volta ispirato a fatti realmente accaduti. La trama si sviluppa attorno agli eventi che ebbero luogo in occasione della Coppa del Mondo di rugby del 1995, tenutasi in Sudafrica poco tempo dopo l\'insediamento di Nelson Mandela come presidente della nazione.
Lo stesso Mandela, interpretato da Morgan Freeman, è fra i protagonisti del film, insieme al capitano della nazionale sudafricana di rugby (gli Springboks), Francois Pienaar (Matt Damon).


TRAMA:

La storia è ambientata in Sudafrica, nel periodo immediatamente successivo alla caduta dell\'apartheid (quindi nel 1995) e all\'insediamento di Nelson Mandela come presidente. Appena entrato in carica, Mandela si pone l\'obiettivo di rappacificare la popolazione del paese, ancora divisa dall\'odio fra i neri e i bianchi afrikaner. Simbolo di questa spaccatura diventa la nazionale di rugby degli Springboks, simbolo dell\'orgoglio afrikaner e detestata dai neri, che proprio in seguito alla caduta del regime dell\'apartheid viene riammessa nelle competizioni internazionali dopo un boicottaggio di circa un decennio. In vista della Coppa del Mondo del 1995, ospitata proprio dal Sudafrica, Mandela si interessa delle sorti della squadra, con la speranza che una eventuale vittoria contribuisca a rafforzare l\'orgoglio nazionale e lo spirito di unità del paese. In particolare, entra in contatto con il capitano François Pienaar, facendogli capire l\'importanza politica della incombente competizione sportiva. Questa frequentazione fra Pienaar e Mandela dà inizio a una serie di eventi che rafforzano il morale degli Springboks (reduci da un lungo periodo di sconfitte) e li conducono fino a una insperata vittoria in finale contro i temibili All Blacks. Il successo della nazionale diventa simbolo della grandezza della neonata \"Rainbow Nation\".


FONTE: http://it.wikipedia.org/wiki/Invictus_-_L\'invincibile


LANGUAGE: ITA (AC3) - ENG (AC3) - SPA (AC3)


DETAILS:

General
Complete name                    : [BluRay Rip 1080p - ITA-ENG-SPA AC3-SUB] Invictus (2009) LiFE [m@rcomem]\\[BluRay Rip 1080p - ITA-ENG-SPA AC3-SUB] Invictus (2009) LiFE [m@rcomem].mkv
Format                           : Matroska
File size                        : 11.3 GiB
Duration                         : 2h 13mn
Overall bit rate                 : 12.1 Mbps
Movie name                       : m@rcomem
Encoded date                     : UTC 2010-05-23 14:43:53
Writing application              : mkvmerge v3.4.0 (\'Rapunzel\') built on May 15 2010 09:38:20
Writing library                  : libebml v0.8.0 + libmatroska v0.9.0

Video
ID                               : 1
Format                           : AVC
Format/Info                      : Advanced Video Codec
Format profile                   : High@L4.0
Format settings, CABAC           : Yes
Format settings, ReFrames        : 5 frames
Muxing mode                      : Container profile=Unknown@4.0
Codec ID                         : V_MPEG4/ISO/AVC
Duration                         : 2h 13mn
Bit rate                         : 10.2 Mbps
Width                            : 1 920 pixels
Height                           : 800 pixels
Display aspect ratio             : 2.40:1
Frame rate                       : 23.976 fps
Color space                      : YUV
Chroma subsampling               : 4:2:0
Bit depth                        : 8 bits
Scan type                        : Progressive
Bits/(Pixel*Frame)               : 0.277
Stream size                      : 9.30 GiB (82%)
Title                            : m@rcomem
Writing library                  : x264 core 94 r1570 d9db8b3
Encoding settings                : cabac=1 / ref=5 / deblock=1:0:0 / analyse=0x3:0x113 / me=umh / subme=7 / psy=1 / psy_rd=1.00:0.20 / mixed_ref=1 / me_range=16 / chroma_me=1 / trellis=1 / 8x8dct=1 / cqm=0 / deadzone=21,11 / fast_pskip=1 / chroma_qp_offset=-3 / threads=12 / sliced_threads=0 / nr=0 / decimate=1 / interlaced=0 / constrained_intra=0 / bframes=3 / b_pyramid=2 / b_adapt=1 / b_bias=0 / direct=3 / wpredb=1 / wpredp=0 / keyint=250 / keyint_min=25 / scenecut=40 / intra_refresh=0 / rc_lookahead=40 / rc=2pass / mbtree=1 / bitrate=10204 / ratetol=1.0 / qcomp=0.60 / qpmin=10 / qpmax=51 / qpstep=4 / cplxblur=20.0 / qblur=0.5 / ip_ratio=1.40 / aq=1:1.00
Language                         : English

Audio #1
ID                               : 2
Format                           : AC-3
Format/Info                      : Audio Coding 3
Mode extension                   : CM (complete main)
Codec ID                         : A_AC3
Duration                         : 2h 13mn
Bit rate mode                    : Constant
Bit rate                         : 640 Kbps
Channel(s)                       : 6 channels
Channel positions                : Front: L C R, Side: L R, LFE
Sampling rate                    : 48.0 KHz
Video delay                      : 6ms
Stream size                      : 612 MiB (5%)
Title                            : Italiano AC3 5.1 @640kbps
Language                         : Italian

Audio #2
ID                               : 3
Format                           : AC-3
Format/Info                      : Audio Coding 3
Mode extension                   : CM (complete main)
Codec ID                         : A_AC3
Duration                         : 2h 13mn
Bit rate mode                    : Constant
Bit rate                         : 640 Kbps
Channel(s)                       : 6 channels
Channel positions                : Front: L C R, Side: L R, LFE
Sampling rate                    : 48.0 KHz
Stream size                      : 612 MiB (5%)
Title                            : Inglese AC3 5.1 @640kbps
Language                         : English

Audio #3
ID                               : 4
Format                           : AC-3
Format/Info                      : Audio Coding 3
Mode extension                   : CM (complete main)
Codec ID                         : A_AC3
Duration                         : 2h 13mn
Bit rate mode                    : Constant
Bit rate                         : 640 Kbps
Channel(s)                       : 6 channels
Channel positions                : Front: L C R, Side: L R, LFE
Sampling rate                    : 48.0 KHz
Video delay                      : 10ms
Stream size                      : 612 MiB (5%)
Title                            : Castellano AC3 5.1 @640kbps
Language                         : Spanish

Text #1
ID                               : 5
Format                           : UTF-8
Codec ID                         : S_TEXT/UTF8
Codec ID/Info                    : UTF-8 Plain Text
Title                            : Italiano Forced
Language                         : Italian

Text #2
ID                               : 6
Format                           : UTF-8
Codec ID                         : S_TEXT/UTF8
Codec ID/Info                    : UTF-8 Plain Text
Title                            : Italiano
Language                         : Italian

Text #3
ID                               : 7
Format                           : UTF-8
Codec ID                         : S_TEXT/UTF8
Codec ID/Info                    : UTF-8 Plain Text
Title                            : English
Language                         : English

Text #4
ID                               : 8
Format                           : UTF-8
Codec ID                         : S_TEXT/UTF8
Codec ID/Info                    : UTF-8 Plain Text
Title                            : Castellano Forzados
Language                         : Spanish

Text #5
ID                               : 9
Format                           : UTF-8
Codec ID                         : S_TEXT/UTF8
Codec ID/Info                    : UTF-8 Plain Text
Title                            : Castellano
Language                         : Spanish

Menu
00:00:00.000                     : en:1. Remember This Day
00:04:20.260                     : en:2. Legitimate Question
00:08:26.130                     : en:3. Look to the Future
00:11:54.130                     : en:4. Forgiveness Starts Here
00:17:23.333                     : en:5. Rugby Disgrace
00:21:15.941                     : en:6. Clashing Symbol
00:29:03.199                     : en:7. Human Calculation
00:36:44.410                     : en:8. A Man\'s Problems
00:40:59.039                     : en:9. Invitation
00:45:34.314                     : en:10. Need to Exceed
00:51:20.494                     : en:11. Thrown Away
00:53:19.279                     : en:12. Request from the Top
00:56:51.950                     : en:13. A Picture Worth More
01:01:09.791                     : en:14. Song We Could Use
01:06:59.515                     : en:15. Inspirational Visits
01:12:27.051                     : en:16. Round One: Australia
01:16:44.349                     : en:17. Invictus
01:21:01.356                     : en:18. Strictly Political
01:28:51.075                     : en:19. Hungry for Greatness
01:32:28.084                     : en:20. Message from Above
01:37:44.191                     : en:21. Your Country Is Proud
01:44:19.586                     : en:22. Lumu is Killing Us
01:48:50.398                     : en:23. Into Extra Time
01:53:14.829                     : en:24. This Is Our Destiny
01:58:11.626                     : en:25. Victory
02:02:30.885                     : en:26. 43 Million
02:06:38.591                     : en:27. End Credits
